<svg xmlns="http://www.w3.org/2000/svg" xmlns:xlink="http://www.w3.org/1999/xlink" viewBox="0 0 6.36 6.49"><defs><style>.cls-1{fill:url(#linear-gradient);}</style><linearGradient id="linear-gradient" x1="1" y1="5.62" x2="5.58" y2="1.04" gradientUnits="userSpaceOnUse"><stop offset="0" stop-color="#c31d6c"/><stop offset="1" stop-color="#8039b4"/></linearGradient></defs><title>Asset 1</title><g id="Layer_2" data-name="Layer 2"><g id="Layer_1-2" data-name="Layer 1"><path class="cls-1" d="M4.68,4.32l1.2,1.21a3.88,3.88,0,0,1-2.55,1A3.19,3.19,0,0,1,0,3.23,3.12,3.12,0,0,1,3.24,0c2,0,3.12,1.44,3.12,3.8H1.93a1.38,1.38,0,0,0,1.34,1A2.3,2.3,0,0,0,4.68,4.32ZM2,2.57H4.47a1.19,1.19,0,0,0-1.2-.94A1.36,1.36,0,0,0,2,2.57Z"/></g></g></svg>