<svg xmlns="http://www.w3.org/2000/svg" width="28.921" height="26.992" viewBox="0 0 28.921 26.992">
  <path id="Icon_metro-volume-mute2" data-name="Icon metro-volume-mute2" d="M31.491,20.58v2.556H28.935l-3.228-3.228-3.228,3.228H19.923V20.58l3.228-3.228-3.228-3.228V11.568h2.556L25.707,14.8l3.228-3.228h2.556v2.556l-3.228,3.228ZM15.1,30.849a.964.964,0,0,1-.682-.282l-7.43-7.43H3.535a.964.964,0,0,1-.964-.964v-9.64a.964.964,0,0,1,.964-.964H6.992l7.43-7.43a.964.964,0,0,1,1.646.682V29.885a.964.964,0,0,1-.964.964Z" transform="translate(-2.571 -3.856)"/>
</svg>
