<svg xmlns="http://www.w3.org/2000/svg" viewBox="0 0 102.34 9.09"><defs><style>.cls-1{fill:#8039b4;}.cls-2{fill:#c31d6c;}</style></defs><title>Asset 1</title><g id="Layer_2" data-name="Layer 2"><g id="Layer_1-2" data-name="Layer 1"><path class="cls-1" d="M4.7,7,5.82,8.13a3.76,3.76,0,0,1-2.53,1A3.19,3.19,0,0,1,0,5.83,3.13,3.13,0,0,1,3.19,2.6c1.94,0,3.08,1.48,3.08,3.82H1.8A1.49,1.49,0,0,0,3.27,7.54,2.19,2.19,0,0,0,4.7,7ZM1.82,5.16H4.59a1.29,1.29,0,0,0-1.33-1A1.5,1.5,0,0,0,1.82,5.16Z"/><path class="cls-1" d="M13.6.56V9H11.85V8.06a2.53,2.53,0,0,1-2.08,1A3,3,0,0,1,6.91,5.84,3,3,0,0,1,9.77,2.6a2.56,2.56,0,0,1,2.08,1V.56ZM11.85,5.84a1.61,1.61,0,0,0-1.58-1.76A1.65,1.65,0,0,0,8.61,5.84a1.66,1.66,0,0,0,1.66,1.78A1.63,1.63,0,0,0,11.85,5.84Z"/><path class="cls-1" d="M17,2.75h1.34V4.16H17V9H15.3V4.16h-.85V2.75h.85V2.21A1.8,1.8,0,0,1,17.16.31a2.3,2.3,0,0,1,1.43.54l-.42,1.07a.9.9,0,0,0-.6-.2.63.63,0,0,0-.59.69Z"/><path class="cls-1" d="M25.08,2.75V9H23.33V8.17a2.24,2.24,0,0,1-1.88.92,2.26,2.26,0,0,1-2.3-2.4V2.75h1.69V6.32A1.18,1.18,0,0,0,22,7.62a1.23,1.23,0,0,0,1.29-1.2l0,0V2.75Z"/><path class="cls-1" d="M25.87,8.16l.76-1.22a3.48,3.48,0,0,0,2.07.7c.47,0,.81-.19.81-.47s-.46-.5-1.1-.67c-1.27-.31-2.25-.66-2.26-1.88s1-2,2.42-2A4.5,4.5,0,0,1,31,3.37l-.71,1.25a3.47,3.47,0,0,0-1.74-.55c-.43,0-.73.15-.73.37s.25.43,1.09.66c1.07.27,2.25.63,2.25,2s-1,2-2.51,2A4.6,4.6,0,0,1,25.87,8.16Z"/><path class="cls-1" d="M32,.94a.95.95,0,0,1,1.89,0A.95.95,0,1,1,32,.94Zm.07,1.81h1.75V9H32.11Z"/><path class="cls-1" d="M34.8,5.84a3.38,3.38,0,0,1,6.76,0,3.38,3.38,0,0,1-6.76,0Zm5.1,0a1.71,1.71,0,1,0-3.42,0,1.71,1.71,0,1,0,3.42,0Z"/><path class="cls-1" d="M48.4,5V9H46.71V5.37a1.18,1.18,0,0,0-1.17-1.29,1.24,1.24,0,0,0-1.3,1.2V9H42.48V2.75h1.75v.78A2.2,2.2,0,0,1,46.1,2.6,2.26,2.26,0,0,1,48.4,5Z"/><path class="cls-2" d="M57.46,7.36l.75.77a3.72,3.72,0,0,1-2.51,1,3.18,3.18,0,0,1-3.19-3.26,3.11,3.11,0,0,1,3.1-3.23c1.89,0,3,1.44,3,3.66H53.71a2,2,0,0,0,2,1.78A2.66,2.66,0,0,0,57.46,7.36ZM53.72,5.31h3.72a1.72,1.72,0,0,0-1.79-1.65A1.94,1.94,0,0,0,53.72,5.31Z"/><path class="cls-2" d="M65.68.56V9H64.51V7.87A2.51,2.51,0,0,1,62.3,9.09a3,3,0,0,1-2.85-3.25A3,3,0,0,1,62.3,2.6a2.55,2.55,0,0,1,2.21,1.21V.56ZM64.51,5.84a1.95,1.95,0,1,0-3.86,0,1.95,1.95,0,1,0,3.86,0Z"/><path class="cls-2" d="M72.69,2.75V9H71.5v-.9a2.3,2.3,0,0,1-2,1,2.27,2.27,0,0,1-2.33-2.4V2.75h1.16V6.49A1.44,1.44,0,0,0,69.8,8.06a1.64,1.64,0,0,0,1.7-1.3v-4Z"/><path class="cls-2" d="M73.85,5.84A3.3,3.3,0,0,1,77.12,2.6a3.21,3.21,0,0,1,2.28,1l-.8.75a2,2,0,0,0-1.49-.68,2.16,2.16,0,0,0-2.06,2.21,2.16,2.16,0,0,0,2.07,2.22,2,2,0,0,0,1.51-.7l.81.74a3.24,3.24,0,0,1-2.33,1A3.3,3.3,0,0,1,73.85,5.84Z"/><path class="cls-2" d="M85.66,5.19V9H84.5V8.1a2.61,2.61,0,0,1-2.06,1,2,2,0,0,1-2.29-2,2.24,2.24,0,0,1,2.48-2.06,5.82,5.82,0,0,1,1.87.34v-.2a1.45,1.45,0,0,0-1.59-1.6,4,4,0,0,0-1.76.51l-.43-.87a5.21,5.21,0,0,1,2.35-.63A2.4,2.4,0,0,1,85.66,5.19ZM84.5,7V6.18a5.61,5.61,0,0,0-1.69-.24c-.83,0-1.52.46-1.52,1.14s.6,1.08,1.38,1.08A1.82,1.82,0,0,0,84.5,7Z"/><path class="cls-2" d="M90.48,8.65a2,2,0,0,1-1.24.44A1.59,1.59,0,0,1,87.61,7.4V3.75h-.94v-1h.94V1h1.16V2.75h1.47v1H88.77V7.32a.68.68,0,0,0,.64.74A.92.92,0,0,0,90,7.83Z"/><path class="cls-2" d="M91.11,5.84a3.27,3.27,0,0,1,6.53,0,3.27,3.27,0,0,1-6.53,0Zm5.34,0a2.08,2.08,0,1,0-4.15,0,2.08,2.08,0,1,0,4.15,0Z"/><path class="cls-2" d="M102.34,2.6v1A2.09,2.09,0,0,0,100,5.42V9H98.85V2.75H100V3.93A2.47,2.47,0,0,1,102.34,2.6Z"/></g></g></svg>